<svg xmlns="http://www.w3.org/2000/svg" version="1.1" xmlnsXlink="http://www.w3.org/1999/xlink" xmlnsSvgjs="http://svgjs.com/svgjs" width="400" height="300" preserveAspectRatio="none" viewBox="0 0 400 300">
  <g mask="url(&quot;#SvgjsMask1155&quot;)" fill="none">
    <g transform="translate(0, 0)" stroke-linecap="round">
      <path d="M10 88.63 L10 211.37" stroke-width="15" stroke="#dd1133"></path>
      <path d="M30 105.47 L30 194.53" stroke-width="15" stroke="#dd1133"></path>
      <path d="M50 51.76 L50 248.24" stroke-width="15" stroke="#3a7cc3"></path>
      <path d="M70 59.22 L70 240.78" stroke-width="15" stroke="#dd1133"></path>
      <path d="M90 99.59 L90 200.41" stroke-width="15" stroke="#dd1133"></path>
      <path d="M110 96.09 L110 203.91" stroke-width="15" stroke="#3a7cc3"></path>
      <path d="M130 39.72 L130 260.28" stroke-width="15" stroke="#3a7cc3"></path>
      <path d="M150 113.63 L150 186.37" stroke-width="15" stroke="#dd1133"></path>
      <path d="M170 132.55 L170 167.45" stroke-width="15" stroke="#dd1133"></path>
      <path d="M190 23.27 L190 276.73" stroke-width="15" stroke="#3a7cc3"></path>
      <path d="M210 124.42 L210 175.58" stroke-width="15" stroke="#dd1133"></path>
      <path d="M230 106.73 L230 193.27" stroke-width="15" stroke="#dd1133"></path>
      <path d="M250 88.27 L250 211.74" stroke-width="15" stroke="#3a7cc3"></path>
      <path d="M270 22.91 L270 277.1" stroke-width="15" stroke="#3a7cc3"></path>
      <path d="M290 53.67 L290 246.33" stroke-width="15" stroke="#dd1133"></path>
      <path d="M310 43.02 L310 256.98" stroke-width="15" stroke="#dd1133"></path>
      <path d="M330 77.63 L330 222.37" stroke-width="15" stroke="#dd1133"></path>
      <path d="M350 52.58 L350 247.42" stroke-width="15" stroke="#dd1133"></path>
      <path d="M370 28.41 L370 271.59" stroke-width="15" stroke="#dd1133"></path>
      <path d="M390 16.97 L390 283.02" stroke-width="15" stroke="#3a7cc3"></path>
    </g>
  </g>
  <defs>
    <mask id="SvgjsMask1155">
      <rect width="400" height="300" fill="#ffffff"></rect>
    </mask>
  </defs>
</svg>